<?xml version="1.0" standalone="yes"?>
<svg xmlns="http://www.w3.org/2000/svg" width="4096" height="4096">
<path style="fill:#313135; stroke:none;" d="M0 0L0 4096L4096 4096L4096 0L0 0z"/>
<path style="fill:#745c4e; stroke:none;" d="M1616 2531C1590.06 2517.05 1566.04 2496.24 1543.79 2477.14C1481.54 2423.69 1427.65 2363.61 1383.92 2294.17C1328.63 2206.37 1288.03 2107.28 1271.44 2005C1255.53 1906.96 1258.72 1805.2 1277.34 1708C1282.36 1681.78 1290.97 1655.26 1299.52 1630C1353.63 1470.17 1452.49 1327.75 1592 1228.78C1704.49 1148.98 1830.02 1104.66 1965 1085.21C1980.82 1082.93 1997.05 1084.37 2012.99 1083.97C2039.83 1083.31 2066.14 1082.79 2093 1083.96C2159.55 1086.87 2226.68 1095.89 2289.04 1118.74C2303.98 1124.21 2320.31 1127.06 2334.91 1133.64C2361.18 1145.47 2387.02 1159.63 2413 1172.63C2462.77 1197.53 2509.38 1225.57 2552.71 1260.59C2638.91 1330.26 2708.24 1420.43 2758.88 1518.17C2793.34 1584.68 2817.78 1660.45 2830.67 1734C2831.93 1741.19 2830.47 1748.74 2831.17 1756C2832.88 1773.67 2835.49 1791.32 2837.17 1809C2839.41 1832.58 2843 1855.24 2843 1879C2843 1893.78 2840.1 1908.28 2839.09 1923C2838.16 1936.52 2839.36 1950.58 2837.71 1964C2818.33 2121.7 2750.63 2269.72 2646.88 2391.17C2617.73 2425.3 2585.24 2455.34 2551.15 2484.44C2543.33 2491.11 2534.14 2496.38 2526.59 2503.33C2523.17 2506.49 2516.94 2512.7 2512.06 2512.91C2506.85 2513.14 2508 2505.26 2508 2502C2508 2489.35 2509 2476.71 2509 2464C2509 2412 2507.92 2359.96 2508 2308C2508.11 2238.47 2510.92 2168.59 2510.92 2099C2510.92 2042.39 2508 1985.76 2508 1929L2508 1802C2508 1781.08 2510.05 1758.78 2507.83 1738C2506.3 1723.73 2495.42 1718.4 2485.42 1709.97C2462.12 1690.33 2436.05 1673.9 2412.71 1654.32C2405.99 1648.67 2398.26 1644.16 2391.59 1638.5C2388.58 1635.93 2383.74 1630.92 2379.21 1631.88C2373.93 1633 2375 1642.17 2375 1646L2375 1689L2375 1874C2375 1939.62 2376.28 2005.39 2374.99 2071C2374.6 2090.7 2371.1 2110.41 2371 2130C2370.34 2267.04 2374 2403.73 2374 2541L2374 2699C2374 2710.85 2372.95 2723.26 2374.58 2735C2375.55 2742.07 2378.82 2747.26 2386.91 2744.11C2490.26 2703.86 2592.93 2644 2674.58 2566.48C2706.67 2536.01 2739.31 2506.11 2767.53 2471.83C2838.12 2386.07 2892.45 2289.96 2931.11 2187C2954 2126.05 2965.85 2062.37 2975.21 1998C3011.82 1746.12 2938.49 1488.15 2780.22 1289.17C2733.51 1230.45 2678.84 1179.89 2620.38 1133.36C2608.89 1124.22 2598.94 1112.85 2587 1104.3C2554.68 1081.15 2519.61 1061.85 2485 1042.43C2466.89 1032.26 2446.63 1027.89 2428.17 1018.93C2391.01 1000.9 2351.88 990.095 2313 977.302C2265.3 961.605 2216.79 954.182 2167 947.711C2159.24 946.702 2151.82 943.927 2144 943.17C2115 940.363 2085.15 941 2056 941C2007.43 941 1958.94 942.005 1911 949.3C1659.69 987.546 1424.77 1131.82 1279.18 1343C1262.47 1367.23 1250.12 1393.47 1235.93 1419C1188.69 1503.98 1156.12 1594.69 1135.67 1689C1126.99 1729.04 1124.73 1770.08 1121.91 1811C1121.19 1821.39 1118.5 1831.53 1118.04 1842C1116.66 1873.4 1119.78 1903.87 1121.91 1935C1122.84 1948.59 1121.86 1962.45 1123.17 1976C1125.11 1996.05 1130.34 2016.3 1133.8 2036C1172.91 2258.53 1292.3 2458.37 1469.83 2601.78C1529.29 2649.81 1596.22 2694.16 1666.96 2722.55C1681.31 2728.31 1696.96 2734.46 1711 2740.97C1718.42 2744.41 1726.9 2750.21 1735 2751.67C1740.37 2752.64 1747.56 2752.31 1750.43 2746.9C1753.83 2740.47 1751.56 2731.82 1751.09 2725C1750.27 2713.11 1751 2700.92 1751 2689L1751 2477C1751 2325 1750.57 2172.97 1750.57 2021C1750.57 1967.38 1753 1913.73 1753 1860C1753 1805.52 1749.74 1751.51 1750 1697C1750.07 1682.71 1751 1668.36 1751 1654C1751 1648.3 1751.87 1639.29 1748.54 1634.32C1743.49 1626.77 1731.31 1638.42 1727.38 1641.84C1708.92 1657.9 1688.45 1672.68 1668.83 1687.33C1657.57 1695.75 1646.48 1704.68 1635 1712.77C1629.61 1716.57 1620.33 1721.94 1617.6 1728.21C1614.99 1734.19 1616 1742.64 1616 1749L1616 1791C1616 1837.22 1614 1882.79 1614 1929C1614 2009.8 1616 2090.19 1616 2171L1616 2531z"/>
<path style="fill:#a47f68; stroke:none;" d="M2505 2519L2505 1989C2505 1931.96 2504 1874.98 2504 1818L2504 1760C2504 1750.75 2505.47 1740.11 2503.77 1731.01C2501.86 1720.76 2483.84 1712.21 2476.17 1706.28C2454.18 1689.26 2432.25 1672.19 2410 1655.47C2400.56 1648.38 2390.76 1637.32 2379 1635C2375.8 1641.65 2377 1649.77 2377 1657L2377 1699C2377 1750.55 2378.85 1802.49 2376.96 1854C2374.14 1931.17 2376 2008.74 2376 2086L2376 2485L2376 2682C2376 2697.67 2375.93 2713.33 2376 2729C2376.03 2734.16 2375.85 2742.45 2383.02 2741.85C2390.73 2741.2 2398.08 2736.34 2405 2733.5C2419.14 2727.69 2433.08 2721.7 2447 2715.41C2506.1 2688.74 2562.28 2653.52 2614 2614.33C2813.24 2463.37 2943.57 2235.84 2974.29 1989C2979.73 1945.27 2983.9 1900.22 2981.96 1856C2976.58 1733 2953.45 1615.76 2905.54 1502C2844.69 1357.55 2742.4 1232.77 2620.09 1136C2574.02 1099.55 2524.85 1066.66 2472 1040.6C2328.32 969.78 2171.83 939.103 2012 943.015C1903.28 945.676 1791.51 971.386 1692 1014.47C1555.83 1073.44 1429.7 1159.78 1335.31 1276C1229.55 1406.23 1156.04 1564.87 1131.3 1731C1087.68 2023.92 1186.37 2328.33 1398.84 2536.13C1475.06 2610.67 1565.24 2676.48 1663 2719.35C1682.67 2727.98 1703.37 2738.27 1724 2744.36C1730 2746.13 1740.1 2753.15 1745.3 2746.77C1749.95 2741.05 1747.8 2731.63 1747.17 2725C1746.08 2713.51 1747 2701.54 1747 2690L1747 2530C1747 2323.34 1749 2116.49 1749 1910C1749 1876.36 1749.28 1842.58 1748.62 1809C1747.91 1773.17 1744.1 1736.34 1746.59 1700.52C1747.7 1684.43 1747.01 1668.12 1747 1652C1747 1648.04 1747.92 1637.32 1742.77 1635.89C1739.54 1634.99 1736.31 1638.52 1734 1640.26C1727.11 1645.44 1720.1 1650.54 1713.42 1656C1690.65 1674.61 1666.57 1691.96 1643 1709.58C1635.99 1714.82 1620.17 1723.63 1619.11 1733C1616.69 1754.42 1619 1777.43 1619 1799C1619 1840.36 1618.49 1881.68 1618 1923C1616.4 2057.16 1618 2191.64 1618 2326L1618 2484L1618 2521C1618 2524.48 1618.69 2532.58 1612.98 2531.67C1608.58 2530.97 1603.57 2525.75 1600 2523.2C1590.92 2516.71 1581.85 2510.31 1573 2503.5C1537.05 2475.8 1504.34 2445.79 1472.73 2413.29C1350.21 2287.32 1273.87 2111.42 1261.91 1937C1259.19 1897.27 1255.39 1857.85 1260.28 1818C1263.85 1788.96 1265.14 1759.83 1270.46 1731C1289.39 1628.58 1328.81 1531.24 1384.45 1443.04C1482.07 1288.28 1636.74 1173.68 1809 1117.4C1858.52 1101.22 1910.9 1088.15 1963 1083.17C2010.59 1078.62 2058.38 1078.65 2106 1081.91C2159.63 1085.58 2213.3 1092.41 2265 1107.63C2370.09 1138.58 2471.78 1191.45 2557 1260.93C2699.96 1377.5 2799.92 1549.09 2832.54 1730C2837.03 1754.95 2837.76 1780.76 2840.17 1806C2841.42 1819.08 2844.38 1831.83 2844.96 1845C2849.02 1937.68 2832.42 2031.25 2804.46 2119C2765.67 2240.78 2694.2 2354.44 2601.17 2442.57C2579.19 2463.4 2556.83 2484.64 2531.99 2502.09C2523.87 2507.79 2515.24 2517.87 2505 2519z"/>
<path style="fill:#cd9b7c; stroke:none;" d="M1742 1637L1741 1637C1715.57 1661.27 1683.89 1681.04 1656 1702.5C1645.98 1710.21 1627.91 1719.19 1622.43 1731C1616.42 1743.96 1621 1767.82 1621 1782C1621 1821.7 1619.51 1861.42 1620.96 1901C1622.35 1938.65 1620 1977.2 1620 2015C1620 2096.34 1620.61 2177.67 1620 2259C1619.48 2328.33 1620 2397.67 1620 2467L1620 2517C1620 2521.78 1621.63 2530.95 1616.83 2534.03C1613.77 2535.99 1609.3 2531.63 1607 2530C1599.09 2524.42 1590.93 2519.32 1583.17 2513.51C1549.89 2488.6 1518.23 2461.74 1488.73 2432.42C1366.08 2310.5 1290.18 2151.47 1263.44 1982C1249.63 1894.51 1252.54 1799 1272.76 1713C1280.75 1679.02 1287.64 1645 1299.39 1612C1329.99 1526.01 1374.44 1444.12 1432.31 1373C1596.17 1171.62 1854.78 1055.05 2114 1079.83C2150.56 1083.32 2187.12 1085.49 2223 1094.24C2310.53 1115.58 2393.8 1148.38 2470.91 1196.06C2659.67 1312.75 2792.08 1508.35 2833.9 1725C2848.4 1800.11 2848.41 1876.24 2841.17 1952C2834.52 2021.57 2819.54 2089.68 2793.76 2155C2749.35 2267.52 2682.79 2366.65 2595.29 2450.41C2574.76 2470.05 2553.06 2489.03 2530 2505.64C2525.15 2509.13 2513.43 2521.58 2507.11 2520.09C2502.15 2518.92 2503 2511.78 2503 2508L2503 2471L2503 2312L2503 1915C2503 1873.63 2502 1832.35 2502 1791C2502 1772.83 2506.28 1748.58 2501.68 1731.04C2499.35 1722.14 2482.1 1713.54 2475.09 1708.15C2452.16 1690.53 2429.59 1672.14 2405.98 1655.42C2397.64 1649.52 2389.76 1639.13 2379 1639C2379 1920.01 2378 2201.15 2378 2482L2378 2680L2378 2726C2378.01 2730.37 2376.57 2739.43 2383.04 2739.67C2389.95 2739.92 2396.93 2735.16 2403 2732.63C2417.12 2726.74 2431.09 2720.95 2445 2714.55C2496.07 2691.07 2543.76 2661.89 2590 2629.9C2783.48 2496.04 2913.36 2285.82 2961.29 2058C2969.31 2019.87 2976.25 1980.07 2977.96 1941C2980.12 1891.58 2981.52 1840.27 2976.83 1791C2970.13 1720.57 2954.99 1651.35 2934.23 1584C2868.92 1372.17 2714.75 1187.9 2525 1075.4C2485.17 1051.78 2443.92 1029.21 2400.91 1012.38C2328.09 983.888 2251.62 962.505 2174 952.289C2123.36 945.624 2072.12 944.754 2021 945.001C1999.05 945.106 1977.78 948.757 1956 950.83C1910.3 955.183 1866.24 962.519 1822 974.236C1699.27 1006.74 1584.36 1060.18 1483 1138.5C1293.69 1284.79 1169.38 1502.35 1132.44 1737C1127.01 1771.47 1126.48 1806.2 1124.96 1841C1121.81 1912.96 1126.54 1985.73 1141.98 2056C1158.98 2133.34 1181.32 2208.56 1216.42 2280C1288.95 2427.6 1400.74 2557.95 1539 2647.94C1585.77 2678.37 1634.71 2705.28 1686 2726.95C1696.18 2731.25 1707.01 2734.78 1717 2739.4C1723.25 2742.29 1731.86 2746.92 1738.98 2746.67C1745.31 2746.44 1745.85 2737.8 1745.95 2733C1746.24 2717.82 1745 2702.27 1745 2687L1745 2491L1745 1876C1745 1819.28 1744 1762.71 1744 1706L1744 1659C1744 1651.9 1745.41 1643.39 1742 1637z"/>
<path style="fill:#745c4e; stroke:none;" d="M2053.09 1454.78C2043.09 1458.24 2032.66 1468.7 2023.71 1474.54C2009.07 1484.12 1983.95 1491.86 1976.06 1509C1971.08 1519.81 1973 1534.4 1973 1546C1973 1572.43 1974.47 1598.71 1974.98 1625C1975.36 1644.19 1972.77 1663.64 1973 1683C1973.17 1697 1975.69 1710.98 1975.99 1725C1977.2 1781.94 1976 1839.04 1976 1896L1976 2007C1976 2016.77 1971.81 2039.75 1978.73 2047.43C1985.2 2054.61 2008.43 2048.99 2017 2048.17C2043.96 2045.6 2071.93 2048.22 2099 2047.04C2107.78 2046.66 2120.75 2049.67 2128.95 2046.4C2138.29 2042.67 2133.99 2020.02 2134 2012C2134.06 1977.09 2135 1942 2135 1907C2135 1820.36 2133.72 1733.62 2134.67 1647C2135.03 1614.31 2136 1581.73 2136 1549C2136 1534.97 2137.55 1519.92 2135.81 1506C2134.04 1491.82 2120.12 1487.59 2109.09 1482.61C2097.69 1477.47 2085.87 1470.34 2075 1464.17C2069.36 1460.96 2060.08 1452.36 2053.09 1454.78z"/>
<path style="fill:#a47f68; stroke:none;" d="M2054 1458.13C2048.97 1459.43 2045.33 1464 2040.96 1466.49C2025.78 1475.15 2011.87 1485.85 1997 1495.09C1990.54 1499.11 1982.25 1504.65 1979.34 1512C1976.21 1519.92 1978.58 1529.64 1977.76 1537.96C1974.85 1567.8 1978 1598.12 1978 1628L1978 1900L1978 2006C1978 2014.92 1973.93 2037.63 1979.74 2044.68C1984.66 2050.64 2006.7 2047 2014 2047C2037.94 2047 2061.99 2046 2086 2046C2098.13 2046 2113.25 2048.41 2125 2045.14C2135.14 2042.31 2131 2020.36 2131 2012L2131 1906L2131 1635C2131 1593.82 2135.81 1551.09 2131.83 1510C2130.31 1494.29 2117.15 1490.69 2105 1483.93C2094.97 1478.36 2085.3 1472.07 2075 1466.96C2069.24 1464.1 2061.04 1456.32 2054 1458.13z"/>
<path style="fill:#cd9b7c; stroke:none;" d="M2053 1461.65C2046.97 1463.03 2041.24 1469.2 2036 1472.47C2023.95 1479.97 2012.86 1488.81 2001 1496.55C1993.66 1501.34 1984.97 1506.04 1982.13 1515C1977.82 1528.62 1980.11 1547.88 1980.92 1562.01C1982.17 1583.79 1981.45 1607.17 1980.99 1629C1979.06 1719.57 1980 1810.35 1980 1901L1980 2007L1980 2033C1980 2036.1 1979.18 2040.97 1981.6 2043.4C1986.86 2048.65 2008.76 2045 2016 2045C2040.38 2045 2064.63 2044 2089 2044C2099.71 2044 2114.65 2046.71 2124.89 2043.57C2133.34 2040.97 2129 2016.95 2129 2010L2129 1904L2129 1642C2129 1599.02 2133.11 1553.75 2128.83 1511C2127.39 1496.6 2114.22 1492.17 2103 1485.93C2092.95 1480.34 2083.32 1473.71 2073.01 1468.58C2066.62 1465.39 2060.85 1459.86 2053 1461.65z"/>
<path style="fill:#e0b194; stroke:none;" d="M2947 1932L2948 1933L2947 1932M2951 1932L2952 1933L2951 1932M2955 1932L2956 1933L2955 1932M2959 1932L2960 1933L2959 1932M2963 1932L2964 1933L2963 1932M2967 1932L2968 1933L2967 1932M2971 1932L2972 1933L2971 1932M2941 1934L2942 1935L2941 1934M2945 1934L2946 1935L2945 1934M2947 1934L2948 1935L2947 1934M2949 1934L2950 1935L2949 1934M2951 1934L2952 1935L2951 1934M2953 1934L2954 1935L2953 1934M2955 1934L2956 1935L2955 1934M2957 1934L2958 1935L2957 1934M2959 1934L2960 1935L2959 1934M2961 1934L2962 1935L2961 1934M2963 1934L2964 1935L2963 1934M2965 1934L2966 1935L2965 1934M2967 1934L2968 1935L2967 1934M2969 1934L2970 1935L2969 1934M2971 1934L2972 1935L2971 1934M2973 1934L2974 1935L2973 1934M2923 1936L2924 1937L2923 1936M2927 1936L2928 1937L2927 1936M2931 1936L2932 1937L2931 1936M2933 1936L2933 1939L2923 1938L2923 1941L2917 1940L2917 1943L2916 1943L2916 1940L2911 1942L2911 1945L2905 1944L2903 1946L2901 1948L2901 1951L2900 1951L2900 1948L2897 1948L2897 1951L2896 1951L2896 1948L2893 1948L2893 1951L2892 1951L2892 1948L2887 1950L2887 1953L2886 1953L2886 1950L2883 1950L2881 1952L2881 1955L2880 1955L2880 1952L2877 1952L2877 1955L2876 1955L2876 1952L2873 1952L2873 1955L2872 1955L2872 1952L2869 1952L2867 1954L2865 1956L2865 1959L2864 1959L2864 1956L2861 1956L2861 1955L2864 1955L2864 1952L2861 1952L2859 1954L2857 1956L2857 1959L2856 1959L2856 1956L2853 1956L2853 1955L2856 1955L2856 1952L2853 1952L2851 1954L2849 1956L2847 1958C2846.65 1962.69 2843.73 1966.44 2843.14 1971.01C2841.87 1980.75 2843.06 1990.58 2841.18 2000.34C2837.03 2022.01 2830.5 2043.69 2824.72 2065C2818.25 2088.84 2812.42 2112.62 2804.39 2136C2768.73 2239.83 2706.35 2333.05 2633.34 2414.58C2605.2 2445.99 2573.13 2474.14 2540 2500.12C2532.01 2506.38 2523.55 2512.01 2515.58 2518.28C2512.98 2520.33 2508.91 2523.75 2505.34 2521.88C2498.83 2518.46 2502 2499.23 2502 2493L2502 2405C2502 2324 2502.03 2242.99 2500.99 2162C2500.6 2132 2500 2102.04 2500 2072C2500 2058.97 2498.33 2044.91 2500 2032C2496.58 2032.68 2497.95 2030.49 2500 2031L2498 2027L2500 2012L2497 2012L2497 2015L2496 2015L2496 2012L2493 2012L2493 2015L2492 2015L2492 2012L2489 2012L2489 2015L2488 2015L2488 2012L2485 2012L2485 2015L2484 2015L2484 2012L2481 2012L2481 2015L2480 2015L2480 2012L2477 2012L2477 2015L2476 2015L2476 2012L2473 2012L2473 2015L2472 2015L2472 2012L2469 2012L2469 2015L2468 2015L2468 2012L2465 2012L2465 2015L2464 2015L2464 2012L2461 2012L2459 2014L2457 2016L2457 2019L2456 2019L2456 2016L2453 2016L2451 2018L2451 2021L2445 2020L2445 2023L2444 2023L2444 2020L2441 2020L2441 2023L2440 2023L2440 2020L2437 2020L2437 2023L2436 2023L2436 2020L2431 2022L2429 2024L2429 2027L2428 2027L2428 2024L2425 2024L2423 2026L2421 2028L2421 2031L2420 2031L2420 2028L2417 2028L2415 2030L2413 2032L2411 2034L2409 2036L2407 2038L2405 2040L2403 2042L2401 2044L2401 2047L2400 2047L2400 2044L2397 2044L2397 2047L2396 2047L2396 2044L2391 2046L2389 2048L2389 2051L2388 2051L2388 2048L2385 2048C2381.84 2098.66 2383.07 2149.2 2381.99 2200C2379.38 2322.62 2379 2445.24 2379 2568L2379 2694L2379 2725C2379 2728.5 2378.13 2733.7 2381.32 2736.13C2386.11 2739.77 2394.55 2735.31 2399 2733.04C2412.84 2725.97 2428.35 2722.23 2442 2714.59C2459.46 2704.82 2478.36 2697.18 2496 2687.59C2534.3 2666.76 2570.91 2642.49 2606 2616.58C2712.42 2537.97 2807.01 2432.01 2867.74 2314C2896.74 2257.66 2920.04 2199.84 2939.53 2140C2952.69 2099.59 2959.77 2056.93 2965.29 2015C2966.07 2009.1 2969.18 2003.9 2969.83 1998C2972.08 1977.3 2971.2 1957.63 2975 1937L2974 1936L2969 1936L2969 1939L2968 1939L2968 1936L2961 1936L2961 1939L2960 1939L2960 1936L2953 1936L2953 1939L2952 1939L2952 1936L2949 1936L2949 1939L2948 1939L2948 1936L2945 1936L2945 1939L2944 1939L2944 1936L2941 1936L2941 1939L2940 1939L2940 1936L2936 1939L2936 1936L2933 1936z"/>
<path style="fill:#cd9b7c; stroke:none;" d="M2953 1940L2952 1940L2950 1938L2950 1941L2957 1941L2957 1938L2958 1938L2958 1941L2965 1941L2965 1938L2966 1938L2966 1941L2973 1941L2974 1937L2969 1940L2968 1940C2965.35 1937.3 2963.6 1937.21 2961 1940C2957.73 1937.7 2955.88 1936.91 2953 1940z"/>
<path style="fill:#e0b194; stroke:none;" d="M2917 1938L2918 1939L2917 1938M2919 1938L2920 1939L2919 1938M2921 1938L2922 1939L2921 1938z"/>
<path style="fill:#cd9b7c; stroke:none;" d="M2934 1938L2925 1939L2924 1940L2924 1943L2927 1943L2927 1940L2928 1940L2928 1943L2931 1943L2931 1940L2932 1940L2932 1943L2935 1943L2935 1940L2936 1940L2936 1943L2939 1943L2939 1940L2940 1940L2940 1943L2943 1943L2943 1940L2949 1941L2947 1938L2946 1938L2945 1940L2944 1940L2943 1938L2942 1938L2941 1940L2940 1940L2939 1938L2938 1938L2937 1940L2936 1940L2934 1938z"/>
<path style="fill:#e0b194; stroke:none;" d="M2955 1938L2954 1940L2955 1938M2963 1938L2962 1940L2963 1938M2971 1938L2970 1940L2971 1938M2934 1939L2933 1941L2934 1939M2938 1939L2937 1941L2938 1939M2942 1939L2941 1941L2942 1939M2946 1939L2947 1940L2946 1939M2911 1940L2912 1941L2911 1940M2925 1940L2926 1941L2925 1940M2929 1940L2930 1941L2929 1940z"/>
<path style="fill:#cd9b7c; stroke:none;" d="M2917 1944L2916 1944L2915 1942L2914 1942L2912 1947L2915 1947L2915 1944L2921 1945L2923 1943C2920.41 1941.11 2919.11 1941.72 2917 1944z"/>
<path style="fill:#e0b194; stroke:none;" d="M2905 1942L2906 1943L2905 1942M2907 1942L2908 1943L2907 1942M2909 1942L2910 1943L2909 1942M2919 1942L2918 1944L2919 1942z"/>
<path style="fill:#cd9b7c; stroke:none;" d="M2944 1942L2945 1943L2944 1942M2946 1942L2947 1943L2946 1942M2948 1942L2949 1943L2948 1942M2950 1942L2951 1943L2950 1942M2952 1942L2953 1943L2952 1942M2954 1942L2955 1943L2954 1942M2956 1942L2957 1943L2956 1942M2958 1942L2959 1943L2958 1942M2960 1942L2961 1943L2960 1942M2962 1942L2963 1943L2962 1942M2964 1942L2965 1943L2964 1942M2966 1942L2967 1943L2966 1942M2968 1942L2969 1943L2968 1942M2970 1942L2971 1943L2970 1942M2972 1942L2973 1943L2972 1942z"/>
<path style="fill:#e0b194; stroke:none;" d="M2914 1943L2913 1945L2914 1943M2899 1944L2900 1945L2899 1944M2903 1944L2904 1945L2903 1944z"/>
<path style="fill:#cd9b7c; stroke:none;" d="M2924 1944L2925 1945L2924 1944M2928 1944L2929 1945L2928 1944M2932 1944L2933 1945L2932 1944M2936 1944L2937 1945L2936 1944M2944 1944L2945 1945L2944 1944M2952 1944L2953 1945L2952 1944M2960 1944L2961 1945L2960 1944M2968 1944L2969 1945L2968 1944M2901 1952L2900 1952L2899 1950L2898 1950L2897 1952L2896 1952L2895 1950L2894 1950L2893 1952L2892 1952L2891 1950L2890 1950L2887 1954L2886 1954L2885 1952L2884 1952L2881 1956L2880 1956L2879 1954L2878 1954L2877 1956L2876 1956L2875 1954L2874 1954L2873 1956L2872 1956L2871 1954L2870 1954L2865 1960L2864 1960L2861 1956L2860 1956L2857 1960L2856 1960L2853 1956L2852 1956L2848 1963L2851 1963L2851 1964L2848 1964L2848 1967L2851 1967L2851 1964L2852 1964L2852 1967L2855 1967L2855 1964L2852 1964L2852 1963L2855 1963L2855 1960L2856 1960L2856 1963L2859 1963L2859 1964L2856 1964L2856 1967L2859 1967L2859 1964L2860 1964L2860 1967L2863 1967L2863 1964L2860 1964L2860 1963L2863 1963L2863 1960L2864 1960L2864 1963L2867 1963L2867 1964L2864 1964L2864 1967L2867 1967L2869 1965L2871 1963L2871 1960L2872 1960L2872 1963L2875 1963L2877 1961L2879 1959L2879 1956L2880 1956L2880 1959L2883 1959L2883 1956L2884 1956L2884 1959L2887 1959L2889 1957L2889 1954L2890 1954L2890 1957L2893 1957L2895 1955L2895 1952L2896 1952L2896 1955L2899 1955L2899 1952L2905 1953L2907 1951L2907 1948L2908 1948L2908 1951L2911 1951L2911 1948L2908 1948L2908 1947L2911 1947C2906.76 1943.92 2903.43 1948.59 2901 1952z"/>
<path style="fill:#e0b194; stroke:none;" d="M2885 1946L2886 1947L2885 1946M2893 1946L2894 1947L2893 1946M2897 1946L2898 1947L2897 1946M2899 1946L2900 1947L2899 1946M2901 1946L2902 1947L2901 1946M2907 1946L2902 1952L2907 1946z"/>
<path style="fill:#cd9b7c; stroke:none;" d="M2916 1946L2917 1947L2916 1946M2918 1946L2919 1947L2918 1946z"/>
<path style="fill:#e0b194; stroke:none;" d="M2973 1946L2974 1947L2973 1946M2851 1948L2852 1949L2851 1948M2855 1948L2856 1949L2855 1948M2859 1948L2860 1949L2859 1948M2863 1948L2864 1949L2863 1948M2867 1948L2868 1949L2867 1948M2871 1948L2872 1949L2871 1948M2875 1948L2876 1949L2875 1948M2879 1948L2880 1949L2879 1948M2883 1948L2884 1949L2883 1948M2887 1948L2888 1949L2887 1948z"/>
<path style="fill:#cd9b7c; stroke:none;" d="M2912 1948L2913 1949L2912 1948M2916 1948L2917 1949L2916 1948z"/>
<path style="fill:#e0b194; stroke:none;" d="M2849 1950L2850 1951L2849 1950M2851 1950L2852 1951L2851 1950M2853 1950L2854 1951L2853 1950M2855 1950L2856 1951L2855 1950M2857 1950L2858 1951L2857 1950M2859 1950L2860 1951L2859 1950M2861 1950L2862 1951L2861 1950M2863 1950L2864 1951L2863 1950M2865 1950L2866 1951L2865 1950M2867 1950L2868 1951L2867 1950M2869 1950L2870 1951L2869 1950M2871 1950L2872 1951L2871 1950M2873 1950L2874 1951L2873 1950M2875 1950L2876 1951L2875 1950M2877 1950L2878 1951L2877 1950M2879 1950L2880 1951L2879 1950M2881 1950L2882 1951L2881 1950z"/>
<path style="fill:#cd9b7c; stroke:none;" d="M2914 1950L2915 1951L2914 1950z"/>
<path style="fill:#e0b194; stroke:none;" d="M2890 1951L2887 1955L2886 1955L2885 1953L2884 1953L2881 1957L2883 1955L2884 1955L2885 1957L2886 1957L2889 1953L2890 1953L2891 1955L2892 1955L2895 1951L2893 1953L2892 1953L2890 1951M2898 1951L2897 1953L2898 1951M2849 1952L2850 1953L2849 1952M2851 1952L2852 1953L2851 1952M2857 1952L2858 1953L2857 1952M2859 1952L2860 1953L2859 1952M2865 1952L2866 1953L2865 1952M2867 1952L2868 1953L2867 1952z"/>
<path style="fill:#cd9b7c; stroke:none;" d="M2890 1952L2892 1954L2890 1952M2906 1952L2907 1953L2906 1952M2908 1952L2909 1953L2908 1952M2912 1952L2913 1953L2912 1952z"/>
<path style="fill:#e0b194; stroke:none;" d="M2847 1954L2848 1955L2847 1954M2849 1954L2850 1955L2849 1954M2857 1954L2858 1955L2857 1954M2865 1954L2866 1955L2865 1954z"/>
<path style="fill:#cd9b7c; stroke:none;" d="M2884 1954L2885 1955L2884 1954M2900 1954L2901 1955L2900 1954M2902 1954L2903 1955L2902 1954M2904 1954L2905 1955L2904 1954M2906 1954L2907 1955L2906 1954z"/>
<path style="fill:#e0b194; stroke:none;" d="M2870 1955L2870 1958L2869 1959L2865 1960L2865 1961L2867 1963L2868 1963L2871 1959L2872 1959L2873 1961L2874 1961L2879 1955L2877 1957L2876 1957L2875 1955L2874 1955L2873 1957L2872 1957L2870 1955M2847 1956L2848 1957L2847 1956z"/>
<path style="fill:#cd9b7c; stroke:none;" d="M2870 1956L2866 1960L2866 1961L2875 1959L2875 1956L2873 1958L2872 1958L2870 1956M2894 1956L2895 1957L2894 1956M2896 1956L2897 1957L2896 1956M2900 1956L2901 1957L2900 1956z"/>
<path style="fill:#e0b194; stroke:none;" d="M2849 1960L2849 1961L2851 1963L2852 1963L2855 1959L2849 1960M2857 1960L2857 1961L2859 1963L2860 1963L2863 1959L2857 1960z"/>
<path style="fill:#cd9b7c; stroke:none;" d="M2888 1958L2889 1959L2888 1958M2890 1958L2891 1959L2890 1958M2894 1958L2895 1959L2894 1958M2850 1960L2850 1961L2854 1960L2850 1960M2858 1960L2858 1961L2862 1960L2858 1960M2878 1960L2879 1961L2878 1960M2880 1960L2881 1961L2880 1960M2884 1960L2885 1961L2884 1960M2888 1960L2889 1961L2888 1960M2876 1962L2877 1963L2876 1962M2878 1962L2879 1963L2878 1962M2882 1962L2883 1963L2882 1962M2846 1964L2847 1965L2846 1964M2870 1964L2871 1965L2870 1964M2872 1964L2873 1965L2872 1964M2876 1964L2877 1965L2876 1964M2846 1966L2847 1967L2846 1966M2868 1966L2869 1967L2868 1966M2870 1966L2871 1967L2870 1966M2844 1968L2845 1969L2844 1968M2848 1968L2849 1969L2848 1968M2852 1968L2853 1969L2852 1968M2856 1968L2857 1969L2856 1968M2860 1968L2861 1969L2860 1968M2864 1968L2865 1969L2864 1968M2868 1968L2869 1969L2868 1968M2872 1968L2873 1969L2872 1968M2846 1970L2847 1971L2846 1970M2850 1970L2851 1971L2850 1970M2854 1970L2855 1971L2854 1970M2858 1970L2859 1971L2858 1970M2862 1970L2863 1971L2862 1970M2866 1970L2867 1971L2866 1970M2844 1972L2845 1973L2844 1972M2848 1972L2849 1973L2848 1972M2852 1972L2853 1973L2852 1972M2856 1972L2857 1973L2856 1972M2860 1972L2861 1973L2860 1972M2864 1972L2865 1973L2864 1972z"/>
<path style="fill:#e0b194; stroke:none;" d="M2463 2004L2464 2005L2463 2004M2467 2004L2468 2005L2467 2004M2471 2004L2472 2005L2471 2004M2475 2004L2476 2005L2475 2004M2479 2004L2480 2005L2479 2004M2483 2004L2484 2005L2483 2004M2487 2004L2488 2005L2487 2004M2491 2004L2492 2005L2491 2004M2495 2004L2496 2005L2495 2004M2499 2004L2500 2005L2499 2004z"/>
<path style="fill:#cd9b7c; stroke:none;" d="M2840 2004L2841 2005L2840 2004z"/>
<path style="fill:#e0b194; stroke:none;" d="M2465 2006L2466 2007L2465 2006M2469 2006L2470 2007L2469 2006M2473 2006L2474 2007L2473 2006M2477 2006L2478 2007L2477 2006M2481 2006L2482 2007L2481 2006M2485 2006L2486 2007L2485 2006M2489 2006L2490 2007L2489 2006M2493 2006L2494 2007L2493 2006M2497 2006L2498 2007L2497 2006M2459 2008L2460 2009L2459 2008M2463 2008L2464 2009L2463 2008M2467 2008L2468 2009L2467 2008M2469 2008L2470 2009L2469 2008M2471 2008L2472 2009L2471 2008M2475 2008L2476 2009L2475 2008M2477 2008L2478 2009L2477 2008M2479 2008L2480 2009L2479 2008M2483 2008L2484 2009L2483 2008M2485 2008L2486 2009L2485 2008M2487 2008L2488 2009L2487 2008M2491 2008L2492 2009L2491 2008M2493 2008L2494 2009L2493 2008M2495 2008L2496 2009L2495 2008M2499 2008L2500 2009L2499 2008z"/>
<path style="fill:#cd9b7c; stroke:none;" d="M2838 2008L2839 2009L2838 2008z"/>
<path style="fill:#e0b194; stroke:none;" d="M2461 2010L2462 2011L2461 2010M2463 2010L2464 2011L2463 2010M2465 2010L2466 2011L2465 2010M2467 2010L2468 2011L2467 2010M2469 2010L2470 2011L2469 2010M2471 2010L2472 2011L2471 2010M2473 2010L2474 2011L2473 2010M2475 2010L2476 2011L2475 2010M2477 2010L2478 2011L2477 2010M2479 2010L2480 2011L2479 2010M2481 2010L2482 2011L2481 2010M2483 2010L2484 2011L2483 2010M2485 2010L2486 2011L2485 2010M2487 2010L2488 2011L2487 2010M2489 2010L2490 2011L2489 2010M2491 2010L2492 2011L2491 2010M2493 2010L2494 2011L2493 2010M2495 2010L2496 2011L2495 2010M2497 2010L2498 2011L2497 2010M2499 2010L2500 2011L2499 2010M2451 2012L2452 2013L2451 2012M2455 2012L2456 2013L2455 2012M2459 2012L2460 2013L2459 2012M2449 2014L2450 2015L2449 2014M2451 2014L2452 2015L2451 2014M2453 2014L2454 2015L2453 2014M2455 2014L2456 2015L2455 2014M2457 2014L2458 2015L2457 2014z"/>
<path style="fill:#cd9b7c; stroke:none;" d="M2462 2014L2457 2020L2456 2020L2455 2018L2454 2018L2445 2024L2444 2024L2443 2022L2442 2022L2441 2024L2440 2024L2439 2022L2438 2022L2437 2024L2436 2024L2435 2022L2434 2022L2429 2028L2428 2028L2427 2026L2426 2026L2421 2032L2420 2032L2419 2030L2418 2030L2401 2048L2400 2048L2399 2046L2398 2046L2397 2048L2396 2048L2395 2046L2394 2046L2389 2052L2388 2052L2386 2050L2386 2055L2387 2055L2387 2052L2388 2052L2388 2055L2391 2055L2391 2052L2392 2052L2392 2055L2395 2055L2395 2052L2396 2052L2396 2055L2399 2055L2401 2053L2401 2050L2402 2050L2402 2053L2405 2053L2407 2051L2407 2048L2408 2048L2408 2051L2411 2051L2411 2048L2408 2048L2408 2047L2411 2047L2413 2045L2415 2043L2415 2040L2416 2040L2416 2043L2419 2043L2419 2040L2416 2040L2416 2039L2419 2039L2421 2037L2423 2035L2423 2032L2424 2032L2424 2035L2427 2035L2427 2032L2424 2032L2424 2031L2427 2031L2427 2028L2428 2028L2428 2031L2431 2031L2433 2029L2435 2027L2435 2024L2436 2024L2436 2027L2439 2027L2439 2024L2440 2024L2440 2027L2443 2027L2443 2024L2444 2024L2444 2027L2447 2027L2447 2024L2448 2024L2448 2027L2451 2027L2453 2025L2453 2022L2454 2022L2454 2025L2457 2025L2459 2023L2459 2020L2460 2020L2460 2023L2463 2023L2463 2020L2464 2020L2464 2023L2467 2023L2467 2020L2468 2020L2468 2023L2471 2023L2471 2020L2472 2020L2472 2023L2475 2023L2475 2020L2476 2020L2476 2023L2479 2023L2479 2020L2480 2020L2480 2023L2483 2023L2483 2020L2484 2020L2484 2023L2487 2023L2487 2020L2488 2020L2488 2023L2491 2023L2491 2020L2492 2020L2492 2023L2495 2023L2495 2020L2496 2020L2496 2023L2499 2023L2499 2014L2497 2016L2496 2016L2495 2014L2494 2014L2493 2016L2492 2016L2491 2014L2490 2014L2489 2016L2488 2016L2487 2014L2486 2014L2485 2016L2484 2016L2483 2014L2482 2014L2481 2016L2480 2016L2479 2014L2478 2014L2477 2016L2476 2016L2475 2014L2474 2014L2473 2016L2472 2016L2471 2014L2470 2014L2469 2016L2468 2016L2467 2014L2466 2014L2465 2016L2464 2016L2462 2014z"/>
<path style="fill:#e0b194; stroke:none;" d="M2462 2015L2457 2021L2456 2021L2455 2019L2454 2019L2445 2025L2447 2023L2448 2023L2449 2025L2450 2025L2453 2021L2454 2021L2455 2023L2456 2023L2459 2019L2460 2019L2461 2021L2462 2021L2463 2019L2464 2019L2465 2021L2466 2021L2467 2019L2468 2019L2469 2021L2470 2021L2471 2019L2472 2019L2473 2021L2474 2021L2475 2019L2476 2019L2477 2021L2478 2021L2479 2019L2480 2019L2481 2021L2482 2021L2483 2019L2484 2019L2485 2021L2486 2021L2487 2019L2488 2019L2489 2021L2490 2021L2491 2019L2492 2019L2493 2021L2494 2021L2495 2019L2496 2019L2498 2021L2498 2016L2495 2015L2494 2015L2493 2017L2492 2017L2491 2015L2490 2015L2489 2017L2488 2017L2487 2015L2486 2015L2485 2017L2484 2017L2483 2015L2482 2015L2481 2017L2480 2017L2479 2015L2478 2015L2477 2017L2476 2017L2475 2015L2474 2015L2473 2017L2472 2017L2471 2015L2470 2015L2469 2017L2468 2017L2467 2015L2466 2015L2465 2017L2464 2017L2462 2015M2439 2016L2440 2017L2439 2016M2443 2016L2444 2017L2443 2016M2447 2016L2448 2017L2447 2016M2451 2016L2452 2017L2451 2016z"/>
<path style="fill:#cd9b7c; stroke:none;" d="M2462 2016L2460 2019L2461 2020L2462 2020L2463 2019L2462 2016M2466 2016L2464 2019L2465 2020L2471 2019L2471 2016L2469 2018L2468 2018L2466 2016M2474 2016L2472 2019L2473 2020L2479 2019L2479 2016L2477 2018L2476 2018L2474 2016M2482 2016L2480 2019L2481 2020L2487 2019L2487 2016L2485 2018L2484 2018L2482 2016M2490 2016L2488 2019L2489 2020L2495 2019L2495 2016L2493 2018L2492 2018L2490 2016z"/>
<path style="fill:#e0b194; stroke:none;" d="M2466 2017L2465 2019L2466 2017M2474 2017L2473 2019L2474 2017M2482 2017L2481 2019L2482 2017M2490 2017L2489 2019L2490 2017M2437 2018L2438 2019L2437 2018M2439 2018L2440 2019L2439 2018M2441 2018L2442 2019L2441 2018M2443 2018L2444 2019L2443 2018M2445 2018L2446 2019L2445 2018M2447 2018L2448 2019L2447 2018M2449 2018L2450 2019L2449 2018M2461 2018L2462 2019L2461 2018z"/>
<path style="fill:#cd9b7c; stroke:none;" d="M2496 2018L2497 2019L2496 2018z"/>
<path style="fill:#e0b194; stroke:none;" d="M2427 2020L2428 2021L2427 2020M2431 2020L2432 2021L2431 2020z"/>
<path style="fill:#cd9b7c; stroke:none;" d="M2454 2020L2455 2021L2454 2020z"/>
<path style="fill:#e0b194; stroke:none;" d="M2425 2022L2426 2023L2425 2022M2427 2022L2428 2023L2427 2022M2429 2022L2430 2023L2429 2022M2434 2023L2429 2029L2434 2023M2438 2023L2437 2025L2438 2023M2442 2023L2441 2025L2442 2023z"/>
<path style="fill:#cd9b7c; stroke:none;" d="M2449 2023L2450 2024L2449 2023z"/>
<path style="fill:#e0b194; stroke:none;" d="M2419 2024L2420 2025L2419 2024M2423 2024L2424 2025L2423 2024z"/>
<path style="fill:#cd9b7c; stroke:none;" d="M2458 2024L2459 2025L2458 2024M2460 2024L2461 2025L2460 2024M2462 2024L2463 2025L2462 2024M2464 2024L2465 2025L2464 2024M2466 2024L2467 2025L2466 2024M2468 2024L2469 2025L2468 2024M2470 2024L2471 2025L2470 2024M2472 2024L2473 2025L2472 2024M2474 2024L2475 2025L2474 2024M2476 2024L2477 2025L2476 2024M2478 2024L2479 2025L2478 2024M2480 2024L2481 2025L2480 2024M2482 2024L2483 2025L2482 2024M2484 2024L2485 2025L2484 2024M2486 2024L2487 2025L2486 2024M2488 2024L2489 2025L2488 2024M2490 2024L2491 2025L2490 2024M2492 2024L2493 2025L2492 2024M2494 2024L2495 2025L2494 2024M2496 2024L2497 2025L2496 2024M2498 2024L2499 2025L2498 2024z"/>
<path style="fill:#e0b194; stroke:none;" d="M2417 2026L2418 2027L2417 2026M2419 2026L2420 2027L2419 2026M2421 2026L2422 2027L2421 2026z"/>
<path style="fill:#cd9b7c; stroke:none;" d="M2452 2026L2453 2027L2452 2026M2454 2026L2455 2027L2454 2026M2456 2026L2457 2027L2456 2026M2458 2026L2459 2027L2458 2026M2460 2026L2461 2027L2460 2026M2462 2026L2463 2027L2462 2026M2464 2026L2465 2027L2464 2026M2466 2026L2467 2027L2466 2026M2470 2026L2471 2027L2470 2026M2472 2026L2473 2027L2472 2026M2474 2026L2475 2027L2474 2026M2478 2026L2479 2027L2478 2026M2480 2026L2481 2027L2480 2026M2482 2026L2483 2027L2482 2026M2486 2026L2487 2027L2486 2026M2488 2026L2489 2027L2488 2026M2490 2026L2491 2027L2490 2026M2494 2026L2495 2027L2494 2026M2496 2026L2497 2027L2496 2026z"/>
<path style="fill:#e0b194; stroke:none;" d="M2426 2027L2421 2033L2420 2033L2418 2031L2418 2034L2417 2035L2414 2038L2413 2039L2410 2042L2409 2043L2406 2046L2405 2047L2401 2049L2400 2049L2399 2047L2398 2047L2393 2048L2393 2051L2389 2053L2391 2051L2392 2051L2393 2053L2394 2053L2395 2051L2396 2051L2397 2053L2398 2053L2401 2049L2402 2049L2403 2051L2404 2051C2410.17 2044.83 2423.94 2035.5 2426 2027M2411 2028L2412 2029L2411 2028M2415 2028L2416 2029L2415 2028z"/>
<path style="fill:#cd9b7c; stroke:none;" d="M2436 2028L2437 2029L2436 2028M2440 2028L2441 2029L2440 2028M2444 2028L2445 2029L2444 2028M2448 2028L2449 2029L2448 2028M2452 2028L2453 2029L2452 2028M2456 2028L2457 2029L2456 2028M2460 2028L2461 2029L2460 2028M2464 2028L2465 2029L2464 2028M2468 2028L2469 2029L2468 2028M2472 2028L2473 2029L2472 2028M2476 2028L2477 2029L2476 2028M2480 2028L2481 2029L2480 2028M2484 2028L2485 2029L2484 2028M2488 2028L2489 2029L2488 2028M2492 2028L2493 2029L2492 2028M2496 2028L2497 2029L2496 2028z"/>
<path style="fill:#e0b194; stroke:none;" d="M2413 2030L2414 2031L2413 2030M2407 2032L2408 2033L2407 2032M2411 2032L2412 2033L2411 2032z"/>
<path style="fill:#cd9b7c; stroke:none;" d="M2418 2032L2415 2035L2414 2036L2411 2039L2410 2040L2407 2043L2406 2044L2402 2048L2402 2049C2407.3 2047.65 2420.07 2037.76 2418 2032M2428 2032L2429 2033L2428 2032M2432 2032L2433 2033L2432 2032z"/>
<path style="fill:#e0b194; stroke:none;" d="M2405 2034L2406 2035L2405 2034M2407 2034L2408 2035L2407 2034M2409 2034L2410 2035L2409 2034z"/>
<path style="fill:#cd9b7c; stroke:none;" d="M2498 2034L2499 2035L2498 2034M2834 2034L2835 2035L2834 2034z"/>
<path style="fill:#e0b194; stroke:none;" d="M2403 2036L2404 2037L2403 2036M2407 2036L2408 2037L2407 2036M2415 2036L2416 2037L2415 2036z"/>
<path style="fill:#cd9b7c; stroke:none;" d="M2422 2036L2423 2037L2422 2036M2424 2036L2425 2037L2424 2036M2428 2036L2429 2037L2428 2036M2498 2036L2499 2037L2498 2036z"/>
<path style="fill:#e0b194; stroke:none;" d="M2401 2038L2402 2039L2401 2038M2403 2038L2404 2039L2403 2038M2405 2038L2406 2039L2405 2038z"/>
<path style="fill:#cd9b7c; stroke:none;" d="M2420 2038L2421 2039L2420 2038M2422 2038L2423 2039L2422 2038M2498 2038L2499 2039L2498 2038z"/>
<path style="fill:#e0b194; stroke:none;" d="M2395 2040L2396 2041L2395 2040M2399 2040L2400 2041L2399 2040M2403 2040L2404 2041L2403 2040M2411 2040L2412 2041L2411 2040z"/>
<path style="fill:#cd9b7c; stroke:none;" d="M2420 2040L2421 2041L2420 2040M2424 2040L2425 2041L2424 2040z"/>
<path style="fill:#e0b194; stroke:none;" d="M2397 2042L2398 2043L2397 2042M2399 2042L2400 2043L2399 2042M2401 2042L2402 2043L2401 2042M2387 2044L2388 2045L2387 2044M2391 2044L2392 2045L2391 2044M2407 2044L2408 2045L2407 2044z"/>
<path style="fill:#cd9b7c; stroke:none;" d="M2414 2044L2415 2045L2414 2044M2416 2044L2417 2045L2416 2044M2420 2044L2421 2045L2420 2044z"/>
<path style="fill:#e0b194; stroke:none;" d="M2385 2046L2386 2047L2385 2046M2387 2046L2388 2047L2387 2046M2389 2046L2390 2047L2389 2046z"/>
<path style="fill:#cd9b7c; stroke:none;" d="M2412 2046L2413 2047L2412 2046M2414 2046L2415 2047L2414 2046M2398 2048L2393 2052L2399 2051L2398 2048M2412 2048L2413 2049L2412 2048M2416 2048L2417 2049L2416 2048z"/>
<path style="fill:#e0b194; stroke:none;" d="M2386 2051L2387 2052L2386 2051z"/>
<path style="fill:#cd9b7c; stroke:none;" d="M2406 2052L2407 2053L2406 2052M2408 2052L2409 2053L2408 2052M2412 2052L2413 2053L2412 2052M2400 2054L2401 2055L2400 2054M2402 2054L2403 2055L2402 2054M2404 2054L2405 2055L2404 2054M2406 2054L2407 2055L2406 2054M2386 2056L2387 2057L2386 2056M2388 2056L2389 2057L2388 2056M2392 2056L2393 2057L2392 2056M2396 2056L2397 2057L2396 2056M2400 2056L2401 2057L2400 2056M2404 2056L2405 2057L2404 2056M2408 2056L2409 2057L2408 2056M2386 2058L2387 2059L2386 2058M2394 2058L2395 2059L2394 2058M2402 2058L2403 2059L2402 2058z"/>
<path style="fill:#e0b194; stroke:none;" d="M1687 2120L1688 2121L1687 2120M1691 2120L1692 2121L1691 2120M1695 2120L1696 2121L1695 2120M1699 2120L1700 2121L1699 2120M1703 2120L1704 2121L1703 2120M1707 2120L1708 2121L1707 2120M1711 2120L1712 2121L1711 2120M1715 2120L1716 2121L1715 2120M1719 2120L1720 2121L1719 2120M1723 2120L1724 2121L1723 2120M1727 2120L1728 2121L1727 2120M1731 2120L1732 2121L1731 2120M1735 2120L1736 2121L1735 2120M1739 2120L1740 2121L1739 2120M1685 2122L1686 2123L1685 2122M1687 2122L1688 2123L1687 2122M1689 2122L1690 2123L1689 2122M1693 2122L1694 2123L1693 2122M1695 2122L1696 2123L1695 2122M1697 2122L1698 2123L1697 2122M1701 2122L1702 2123L1701 2122M1703 2122L1704 2123L1703 2122M1705 2122L1706 2123L1705 2122M1709 2122L1710 2123L1709 2122M1711 2122L1712 2123L1711 2122M1713 2122L1714 2123L1713 2122M1717 2122L1718 2123L1717 2122M1719 2122L1720 2123L1719 2122M1721 2122L1722 2123L1721 2122M1725 2122L1726 2123L1725 2122M1727 2122L1728 2123L1727 2122M1729 2122L1730 2123L1729 2122M1733 2122L1734 2123L1733 2122M1735 2122L1736 2123L1735 2122M1737 2122L1738 2123L1737 2122M1683 2124L1684 2125L1683 2124M1687 2124L1688 2125L1687 2124M1689 2124L1690 2125L1689 2124M1691 2124L1692 2125L1691 2124M1695 2124L1696 2125L1695 2124M1697 2124L1698 2125L1697 2124M1699 2124L1700 2125L1699 2124M1703 2124L1704 2125L1703 2124M1705 2124L1706 2125L1705 2124M1707 2124L1708 2125L1707 2124M1711 2124L1712 2125L1711 2124M1713 2124L1714 2125L1713 2124M1715 2124L1716 2125L1715 2124M1719 2124L1720 2125L1719 2124M1721 2124L1722 2125L1721 2124M1723 2124L1724 2125L1723 2124M1727 2124L1728 2125L1727 2124M1729 2124L1730 2125L1729 2124M1731 2124L1732 2125L1731 2124M1735 2124L1736 2125L1735 2124M1737 2124L1738 2125L1737 2124M1739 2124L1740 2125L1739 2124M1681 2126L1682 2127L1681 2126M1683 2126L1684 2127L1683 2126M1685 2126L1686 2127L1685 2126M1687 2126L1688 2127L1687 2126M1689 2126L1690 2127L1689 2126M1691 2126L1692 2127L1691 2126M1693 2126L1694 2127L1693 2126M1695 2126L1696 2127L1695 2126M1697 2126L1698 2127L1697 2126M1699 2126L1700 2127L1699 2126M1701 2126L1702 2127L1701 2126M1703 2126L1704 2127L1703 2126M1705 2126L1706 2127L1705 2126M1707 2126L1708 2127L1707 2126M1709 2126L1710 2127L1709 2126M1711 2126L1712 2127L1711 2126M1713 2126L1714 2127L1713 2126M1715 2126L1716 2127L1715 2126M1717 2126L1718 2127L1717 2126M1719 2126L1720 2127L1719 2126M1721 2126L1722 2127L1721 2126M1723 2126L1724 2127L1723 2126M1725 2126L1726 2127L1725 2126M1727 2126L1728 2127L1727 2126M1729 2126L1730 2127L1729 2126M1731 2126L1732 2127L1731 2126M1733 2126L1734 2127L1733 2126M1735 2126L1736 2127L1735 2126M1737 2126L1738 2127L1737 2126M1739 2126L1740 2127L1739 2126M1679 2128L1680 2129L1679 2128M1683 2128L1684 2129L1683 2128M1685 2128L1683 2130L1681 2132L1679 2134L1677 2136L1675 2138L1673 2140L1671 2142L1669 2144L1667 2146L1665 2148L1663 2150L1661 2152L1659 2154L1657 2156L1657 2159L1656 2159L1656 2156L1653 2156L1653 2155L1656 2155L1656 2152L1653 2152L1653 2155L1652 2155L1652 2152L1649 2152L1649 2151L1652 2151L1652 2148L1649 2148L1649 2151L1648 2151L1648 2148L1645 2148L1645 2147L1648 2147L1648 2144L1645 2144L1645 2147L1644 2147L1644 2144L1642 2142L1640 2140L1637 2140L1637 2143L1636 2143L1636 2140L1634 2138L1632 2136L1629 2136L1629 2139L1628 2139L1628 2136L1627 2136C1623.92 2148.4 1626 2163.28 1626 2176C1626 2198.64 1625 2221.32 1625 2244C1625 2309.96 1623 2376.02 1623 2442L1623 2514C1623 2519.44 1625.16 2535.08 1617.94 2536.96C1611.86 2538.55 1600.8 2528.16 1596 2524.88C1576.35 2511.47 1557.07 2496.77 1539 2481.27C1475.66 2426.94 1423.77 2365.41 1376.78 2296.91C1363.42 2277.43 1352.61 2256.21 1340.81 2235.91C1337.37 2229.98 1334.96 2217.1 1328 2215L1327 2205L1313 2188L1313 2187L1316 2187L1313 2184L1313 2187L1312 2187L1312 2184L1309 2184L1307 2186L1305 2188L1305 2191L1304 2191L1304 2188L1301 2188L1299 2190L1297 2192L1297 2195L1296 2195L1296 2192L1293 2192L1293 2195L1292 2195L1292 2192L1289 2192L1289 2195L1288 2195L1288 2192L1285 2192L1283 2194L1283 2197L1277 2196L1277 2199L1276 2199L1276 2196L1273 2196L1271 2198L1269 2200L1267 2202L1265 2204L1265 2207L1264 2207L1264 2204L1261 2204L1261 2211L1260 2211L1260 2208L1257 2208L1257 2211L1260 2211L1260 2212L1257 2212L1257 2215L1256 2215L1256 2212L1253 2212L1253 2215L1252 2215L1252 2212L1249 2212L1249 2215L1248 2215L1248 2212L1245 2212L1245 2215L1244 2215L1244 2212L1241 2212L1241 2215L1240 2215L1240 2212L1237 2212L1237 2215L1236 2215L1236 2212L1233 2212L1233 2215L1232 2215L1232 2212L1229 2212L1229 2215L1228 2215L1228 2212L1225 2212L1223 2214L1221 2216L1219 2218L1217 2220L1215 2222L1213 2224L1211 2226L1209 2228L1207 2230L1205 2232L1203 2234C1213.08 2281.08 1243.42 2327.14 1268.9 2368.09C1344.62 2489.8 1449.47 2592.31 1572 2666.69C1611.76 2690.83 1655.51 2716.99 1700 2730.92C1710.14 2734.1 1719.58 2740.22 1730 2742.57C1733.33 2743.33 1738.42 2745.02 1741.26 2742.26C1748.11 2735.59 1744 2711.89 1744 2703L1744 2589C1744 2503.65 1743 2418.36 1743 2333C1743 2264.83 1744.7 2195.91 1740 2128L1737 2128L1737 2131L1736 2131L1736 2128L1733 2128L1733 2131L1732 2131L1732 2128L1729 2128L1729 2131L1728 2131L1728 2128L1725 2128L1725 2131L1724 2131L1724 2128L1721 2128L1721 2131L1720 2131L1720 2128L1717 2128L1717 2131L1716 2131L1716 2128L1713 2128L1713 2131L1712 2131L1712 2128L1709 2128L1709 2131L1708 2131L1708 2128L1705 2128L1705 2131L1704 2131L1704 2128L1701 2128L1701 2131L1700 2131L1700 2128L1697 2128L1697 2131L1696 2131L1696 2128L1693 2128L1693 2131L1692 2131L1692 2128L1689 2128L1689 2131L1688 2131L1688 2128L1685 2128M1677 2130L1678 2131L1677 2130M1679 2130L1680 2131L1679 2130M1681 2130L1682 2131L1681 2130z"/>
<path style="fill:#cd9b7c; stroke:none;" d="M1686 2130L1657 2160L1656 2160L1639 2142L1638 2142L1637 2144L1636 2144L1631 2138L1630 2138L1627 2139L1628 2143L1635 2143L1635 2144L1632 2144L1632 2147L1635 2147L1635 2144L1636 2144L1636 2147L1639 2147L1639 2148L1636 2148L1636 2151L1639 2151L1639 2148L1640 2148L1640 2151L1643 2151L1643 2152L1640 2152L1640 2155L1643 2155L1643 2156L1640 2156L1640 2159L1643 2159L1643 2156L1644 2156L1644 2159L1646 2161L1648 2163L1650 2165L1652 2167L1655 2167L1655 2164L1656 2164L1656 2167L1659 2167L1659 2164L1660 2164L1660 2167L1663 2167L1663 2164L1660 2164L1660 2163L1663 2163L1663 2160L1664 2160L1664 2163L1667 2163L1669 2161L1671 2159L1671 2156L1668 2156L1668 2155L1671 2155L1671 2152L1672 2152L1672 2155L1675 2155L1675 2152L1672 2152L1672 2151L1675 2151L1677 2149L1679 2147L1679 2140L1680 2140L1680 2143L1683 2143L1685 2141L1687 2139L1687 2136L1688 2136L1688 2139L1691 2139L1691 2136L1692 2136L1692 2139L1695 2139L1695 2136L1696 2136L1696 2139L1699 2139L1699 2136L1700 2136L1700 2139L1703 2139L1703 2136L1704 2136L1704 2139L1707 2139L1707 2136L1708 2136L1708 2139L1711 2139L1711 2136L1712 2136L1712 2139L1715 2139L1715 2136L1716 2136L1716 2139L1719 2139L1719 2136L1720 2136L1720 2139L1723 2139L1723 2136L1724 2136L1724 2139L1727 2139L1727 2136L1728 2136L1728 2139L1731 2139L1731 2136L1732 2136L1732 2139L1735 2139L1735 2136L1736 2136L1736 2139L1739 2139L1740 2136L1740 2135L1738 2134L1738 2133L1740 2131L1739 2130L1737 2132L1736 2132L1735 2130L1734 2130L1733 2132L1732 2132L1731 2130L1730 2130L1729 2132L1728 2132L1727 2130L1726 2130L1725 2132L1724 2132L1723 2130L1722 2130L1721 2132L1720 2132L1719 2130L1718 2130L1717 2132L1716 2132L1715 2130L1714 2130L1713 2132L1712 2132L1711 2130L1710 2130L1709 2132L1708 2132L1707 2130L1706 2130L1705 2132L1704 2132L1703 2130L1702 2130L1701 2132L1700 2132L1699 2130L1698 2130L1697 2132L1696 2132L1695 2130L1694 2130L1693 2132L1692 2132L1691 2130L1690 2130L1689 2132L1688 2132L1686 2130z"/>
<path style="fill:#e0b194; stroke:none;" d="M1686 2131C1680.83 2136.17 1671.26 2142.64 1670 2150L1669 2151L1666 2154L1665 2155L1662 2158L1661 2159L1657 2161L1656 2161L1652 2159L1651 2158L1648 2155L1647 2154L1638 2143L1637 2144L1644 2151L1644 2152L1642 2153L1642 2154L1653 2165L1654 2165L1655 2163L1656 2163L1657 2165L1658 2165L1663 2159L1664 2159L1665 2161L1666 2161L1669 2158L1669 2157L1667 2156L1667 2155C1673.43 2150.47 1676.1 2145.92 1679 2139L1680 2139L1681 2141L1682 2141L1687 2135L1688 2135L1689 2137L1690 2137L1691 2135L1692 2135L1693 2137L1694 2137L1695 2135L1696 2135L1697 2137L1698 2137L1699 2135L1700 2135L1701 2137L1702 2137L1703 2135L1704 2135L1705 2137L1706 2137L1707 2135L1708 2135L1709 2137L1710 2137L1711 2135L1712 2135L1713 2137L1714 2137L1715 2135L1716 2135L1717 2137L1718 2137L1719 2135L1720 2135L1721 2137L1722 2137L1723 2135L1724 2135L1725 2137L1726 2137L1727 2135L1728 2135L1729 2137L1730 2137L1731 2135L1732 2135L1733 2137L1734 2137L1735 2135L1736 2135L1738 2137L1739 2136L1737 2134L1737 2133L1739 2131L1737 2133L1736 2133L1735 2131L1734 2131L1733 2133L1732 2133L1731 2131L1730 2131L1729 2133L1728 2133L1727 2131L1726 2131L1725 2133L1724 2133L1723 2131L1722 2131L1721 2133L1720 2133L1719 2131L1718 2131L1717 2133L1716 2133L1715 2131L1714 2131L1713 2133L1712 2133L1711 2131L1710 2131L1709 2133L1708 2133L1707 2131L1706 2131L1705 2133L1704 2133L1703 2131L1702 2131L1701 2133L1700 2133L1699 2131L1698 2131L1697 2133L1696 2133L1695 2131L1694 2131L1693 2133L1692 2133L1691 2131L1690 2131L1689 2133L1688 2133L1686 2131M1675 2132L1676 2133L1675 2132M1679 2132L1680 2133L1679 2132z"/>
<path style="fill:#cd9b7c; stroke:none;" d="M1686 2132L1680 2139L1681 2140L1682 2140L1683 2139L1682 2137L1683 2136L1691 2135L1691 2132L1689 2134L1688 2134L1686 2132M1694 2132L1692 2135L1699 2135L1699 2132L1697 2134L1696 2134L1694 2132M1702 2132L1700 2135L1707 2135L1707 2132L1705 2134L1704 2134L1702 2132M1710 2132L1708 2135L1715 2135L1715 2132L1713 2134L1712 2134L1710 2132M1718 2132L1716 2135L1723 2135L1723 2132L1721 2134L1720 2134L1718 2132M1726 2132L1724 2135L1731 2135L1731 2132L1729 2134L1728 2134L1726 2132M1734 2132L1732 2135L1737 2135L1734 2132z"/>
<path style="fill:#e0b194; stroke:none;" d="M1686 2133L1684 2136L1686 2133M1694 2133L1695 2134L1694 2133M1702 2133L1703 2134L1702 2133M1710 2133L1711 2134L1710 2133M1718 2133L1719 2134L1718 2133M1726 2133L1727 2134L1726 2133M1734 2133L1735 2134L1734 2133M1629 2134L1630 2135L1629 2134M1673 2134L1674 2135L1673 2134M1675 2134L1676 2135L1675 2134M1677 2134L1678 2135L1677 2134M1635 2136L1636 2137L1635 2136M1639 2136L1640 2137L1639 2136M1671 2136L1672 2137L1671 2136M1675 2136L1676 2137L1675 2136M1635 2138L1636 2139L1635 2138M1637 2138L1638 2139L1637 2138M1639 2138L1640 2139L1639 2138M1669 2138L1670 2139L1669 2138M1671 2138L1672 2139L1671 2138M1673 2138L1674 2139L1673 2138M1681 2138L1682 2139L1681 2138M1630 2139L1629 2140L1629 2141L1630 2142L1633 2142L1630 2139z"/>
<path style="fill:#cd9b7c; stroke:none;" d="M1630 2140L1631 2141L1630 2140z"/>
<path style="fill:#e0b194; stroke:none;" d="M1643 2140L1644 2141L1643 2140M1667 2140L1668 2141L1667 2140M1671 2140L1672 2141L1671 2140z"/>
<path style="fill:#cd9b7c; stroke:none;" d="M1686 2140L1687 2141L1686 2140M1688 2140L1689 2141L1688 2140M1692 2140L1693 2141L1692 2140M1694 2140L1695 2141L1694 2140M1696 2140L1697 2141L1696 2140M1700 2140L1701 2141L1700 2140M1702 2140L1703 2141L1702 2140M1704 2140L1705 2141L1704 2140M1708 2140L1709 2141L1708 2140M1710 2140L1711 2141L1710 2140M1712 2140L1713 2141L1712 2140M1716 2140L1717 2141L1716 2140M1718 2140L1719 2141L1718 2140M1720 2140L1721 2141L1720 2140M1724 2140L1725 2141L1724 2140M1726 2140L1727 2141L1726 2140M1728 2140L1729 2141L1728 2140M1732 2140L1733 2141L1732 2140M1734 2140L1735 2141L1734 2140M1736 2140L1737 2141L1736 2140z"/>
<path style="fill:#e0b194; stroke:none;" d="M1643 2142L1644 2143L1643 2142M1645 2142L1646 2143L1645 2142M1665 2142L1666 2143L1665 2142M1667 2142L1668 2143L1667 2142M1669 2142L1670 2143L1669 2142z"/>
<path style="fill:#cd9b7c; stroke:none;" d="M1676 2142L1670 2149L1674 2145L1675 2144L1677 2145L1676 2142M1684 2142L1685 2143L1684 2142M1686 2142L1687 2143L1686 2142M1690 2142L1691 2143L1690 2142M1692 2142L1693 2143L1692 2142M1694 2142L1695 2143L1694 2142M1698 2142L1699 2143L1698 2142M1700 2142L1701 2143L1700 2142M1702 2142L1703 2143L1702 2142M1706 2142L1707 2143L1706 2142M1708 2142L1709 2143L1708 2142M1710 2142L1711 2143L1710 2142M1714 2142L1715 2143L1714 2142M1716 2142L1717 2143L1716 2142M1718 2142L1719 2143L1718 2142M1722 2142L1723 2143L1722 2142M1724 2142L1725 2143L1724 2142M1726 2142L1727 2143L1726 2142M1730 2142L1731 2143L1730 2142M1732 2142L1733 2143L1732 2142M1734 2142L1735 2143L1734 2142M1738 2142L1739 2143L1738 2142M1740 2142L1741 2143L1740 2142M1628 2144L1629 2145L1628 2144M1638 2144L1639 2145L1638 2144z"/>
<path style="fill:#e0b194; stroke:none;" d="M1651 2144L1652 2145L1651 2144M1663 2144L1664 2145L1663 2144M1667 2144L1668 2145L1667 2144z"/>
<path style="fill:#cd9b7c; stroke:none;" d="M1680 2144L1681 2145L1680 2144M1684 2144L1685 2145L1684 2144M1688 2144L1689 2145L1688 2144M1692 2144L1693 2145L1692 2144M1696 2144L1697 2145L1696 2144M1700 2144L1701 2145L1700 2144M1704 2144L1705 2145L1704 2144M1708 2144L1709 2145L1708 2144M1712 2144L1713 2145L1712 2144M1716 2144L1717 2145L1716 2144M1720 2144L1721 2145L1720 2144M1724 2144L1725 2145L1724 2144M1728 2144L1729 2145L1728 2144M1732 2144L1733 2145L1732 2144M1736 2144L1737 2145L1736 2144M1740 2144L1741 2145L1740 2144M1640 2146L1644 2155L1646 2157L1649 2157L1652 2160L1653 2161L1652 2163L1655 2163L1655 2160L1654 2159L1651 2156L1650 2155L1640 2146z"/>
<path style="fill:#e0b194; stroke:none;" d="M1649 2146L1650 2147L1649 2146M1653 2146L1654 2147L1653 2146M1661 2146L1662 2147L1661 2146M1663 2146L1664 2147L1663 2146M1665 2146L1666 2147L1665 2146M1673 2146L1672 2148L1673 2146z"/>
<path style="fill:#cd9b7c; stroke:none;" d="M1680 2146L1681 2147L1680 2146M1682 2146L1683 2147L1682 2146M1632 2148L1633 2149L1632 2148z"/>
<path style="fill:#e0b194; stroke:none;" d="M1655 2148L1656 2149L1655 2148M1659 2148L1660 2149L1659 2148M1663 2148L1664 2149L1663 2148z"/>
<path style="fill:#cd9b7c; stroke:none;" d="M1678 2148L1679 2149L1678 2148M1680 2148L1681 2149L1680 2148M1684 2148L1685 2149L1684 2148M1634 2150L1635 2151L1634 2150z"/>
<path style="fill:#e0b194; stroke:none;" d="M1653 2150L1654 2151L1653 2150M1655 2150L1656 2151L1655 2150M1657 2150L1658 2151L1657 2150M1659 2150L1660 2151L1659 2150M1661 2150L1662 2151L1661 2150z"/>
<path style="fill:#cd9b7c; stroke:none;" d="M1670 2150L1667 2151L1666 2152L1663 2155L1662 2156L1656 2163L1657 2164L1667 2159L1670 2150M1676 2150L1677 2151L1676 2150M1678 2150L1679 2151L1678 2150M1632 2152L1633 2153L1632 2152M1636 2152L1637 2153L1636 2152M1638 2152L1639 2153L1638 2152z"/>
<path style="fill:#e0b194; stroke:none;" d="M1645 2152L1646 2153L1645 2152M1659 2152L1660 2153L1659 2152M1667 2152L1668 2153L1667 2152z"/>
<path style="fill:#cd9b7c; stroke:none;" d="M1676 2152L1677 2153L1676 2152M1680 2152L1681 2153L1680 2152M1634 2154L1635 2155L1634 2154M1636 2154L1637 2155L1636 2154M1638 2154L1639 2155L1638 2154z"/>
<path style="fill:#e0b194; stroke:none;" d="M1657 2154L1658 2155L1657 2154z"/>
<path style="fill:#cd9b7c; stroke:none;" d="M1676 2154L1677 2155L1676 2154M1678 2154L1679 2155L1678 2154M1680 2154L1681 2155L1680 2154M1682 2154L1683 2155L1682 2154M1632 2156L1633 2157L1632 2156M1636 2156L1637 2157L1636 2156M1638 2156L1639 2157L1638 2156z"/>
<path style="fill:#e0b194; stroke:none;" d="M1649 2156L1650 2157L1649 2156M1663 2156L1663 2157L1666 2157L1666 2156L1663 2156z"/>
<path style="fill:#cd9b7c; stroke:none;" d="M1672 2156L1673 2157L1672 2156M1674 2156L1675 2157L1674 2156M1676 2156L1677 2157L1676 2156M1680 2156L1681 2157L1680 2156M1684 2156L1685 2157L1684 2156M1634 2158L1635 2159L1634 2158M1636 2158L1637 2159L1636 2158M1638 2158L1639 2159L1638 2158z"/>
<path style="fill:#e0b194; stroke:none;" d="M1649 2158L1651 2160L1649 2158z"/>
<path style="fill:#cd9b7c; stroke:none;" d="M1672 2158L1673 2159L1672 2158M1674 2158L1675 2159L1674 2158M1676 2158L1677 2159L1676 2158M1678 2158L1679 2159L1678 2158M1632 2160L1633 2161L1632 2160M1636 2160L1637 2161L1636 2160M1640 2160L1641 2161L1640 2160M1642 2160L1643 2161L1642 2160M1644 2160L1645 2161L1644 2160z"/>
<path style="fill:#e0b194; stroke:none;" d="M1653 2160L1654 2161L1653 2160M1659 2160L1657 2163L1659 2160z"/>
<path style="fill:#cd9b7c; stroke:none;" d="M1670 2160L1671 2161L1670 2160M1672 2160L1673 2161L1672 2160M1674 2160L1675 2161L1674 2160M1676 2160L1677 2161L1676 2160M1680 2160L1681 2161L1680 2160M1634 2162L1635 2163L1634 2162M1638 2162L1639 2163L1638 2162M1640 2162L1641 2163L1640 2162M1642 2162L1643 2163L1642 2162M1644 2162L1645 2163L1644 2162M1646 2162L1647 2163L1646 2162M1668 2162L1669 2163L1668 2162M1670 2162L1671 2163L1670 2162M1672 2162L1673 2163L1672 2162M1674 2162L1675 2163L1674 2162M1632 2164L1633 2165L1632 2164M1636 2164L1637 2165L1636 2164M1640 2164L1641 2165L1640 2164M1644 2164L1645 2165L1644 2164M1646 2164L1647 2165L1646 2164M1648 2164L1649 2165L1648 2164M1664 2164L1665 2165L1664 2164M1666 2164L1667 2165L1666 2164M1668 2164L1669 2165L1668 2164M1672 2164L1673 2165L1672 2164M1676 2164L1677 2165L1676 2164M1680 2164L1681 2165L1680 2164M1638 2166L1639 2167L1638 2166M1642 2166L1643 2167L1642 2166M1644 2166L1645 2167L1644 2166M1646 2166L1647 2167L1646 2166M1648 2166L1649 2167L1648 2166M1650 2166L1651 2167L1650 2166M1664 2166L1665 2167L1664 2166M1666 2166L1667 2167L1666 2166M1668 2166L1669 2167L1668 2166M1670 2166L1671 2167L1670 2166M1674 2166L1675 2167L1674 2166M1632 2168L1633 2169L1632 2168M1636 2168L1637 2169L1636 2168M1640 2168L1641 2169L1640 2168M1644 2168L1645 2169L1644 2168M1648 2168L1649 2169L1648 2168M1652 2168L1653 2169L1652 2168M1656 2168L1657 2169L1656 2168M1658 2168L1659 2169L1658 2168M1660 2168L1661 2169L1660 2168M1664 2168L1665 2169L1664 2168M1668 2168L1669 2169L1668 2168M1672 2168L1673 2169L1672 2168M1676 2168L1677 2169L1676 2168M1680 2168L1681 2169L1680 2168M1642 2170L1643 2171L1642 2170M1650 2170L1651 2171L1650 2170M1654 2170L1655 2171L1654 2170M1656 2170L1657 2171L1656 2170M1658 2170L1659 2171L1658 2170M1662 2170L1663 2171L1662 2170M1666 2170L1667 2171L1666 2170M1636 2172L1637 2173L1636 2172M1640 2172L1641 2173L1640 2172M1644 2172L1645 2173L1644 2172M1648 2172L1649 2173L1648 2172M1652 2172L1653 2173L1652 2172M1656 2172L1657 2173L1656 2172M1660 2172L1661 2173L1660 2172M1664 2172L1665 2173L1664 2172M1668 2172L1669 2173L1668 2172M1672 2172L1673 2173L1672 2172M1676 2172L1677 2173L1676 2172z"/>
<path style="fill:#e0b194; stroke:none;" d="M1311 2176L1312 2177L1311 2176M1307 2180L1308 2181L1307 2180M1311 2180L1312 2181L1311 2180M1305 2182L1306 2183L1305 2182M1309 2182L1310 2183L1309 2182M1311 2182L1312 2183L1311 2182M1313 2182L1314 2183L1313 2182M1303 2184L1304 2185L1303 2184M1307 2184L1308 2185L1307 2184M1301 2186L1302 2187L1301 2186M1303 2186L1304 2187L1303 2186M1305 2186L1306 2187L1305 2186z"/>
<path style="fill:#cd9b7c; stroke:none;" d="M1310 2186L1305 2192L1304 2192L1303 2190L1302 2190L1297 2196L1296 2196L1295 2194L1294 2194L1293 2196L1292 2196L1291 2194L1290 2194L1289 2196L1288 2196L1287 2194L1286 2194L1284 2199L1287 2199L1287 2196L1288 2196L1288 2199L1291 2199L1291 2196L1292 2196L1292 2199L1295 2199L1295 2196L1296 2196L1296 2199L1299 2199L1299 2196L1300 2196L1300 2199L1303 2199L1305 2197L1305 2194L1306 2194L1306 2197L1309 2197L1311 2195L1311 2192L1312 2192L1312 2195L1315 2195L1315 2192L1316 2192L1316 2195L1319 2195L1310 2186z"/>
<path style="fill:#e0b194; stroke:none;" d="M1310 2187L1310 2190L1309 2191L1305 2193L1304 2193L1303 2191L1302 2191L1297 2197L1299 2195L1300 2195L1301 2197L1302 2197L1305 2193L1306 2193L1307 2195L1308 2195L1311 2191L1312 2191L1313 2193L1314 2193L1315 2191L1316 2191L1318 2193L1310 2187M1291 2188L1292 2189L1291 2188M1295 2188L1296 2189L1295 2188M1299 2188L1300 2189L1299 2188z"/>
<path style="fill:#cd9b7c; stroke:none;" d="M1310 2188L1306 2192L1306 2193L1311 2190L1312 2190L1314 2192L1310 2188z"/>
<path style="fill:#e0b194; stroke:none;" d="M1289 2190L1290 2191L1289 2190M1291 2190L1292 2191L1291 2190M1293 2190L1294 2191L1293 2190M1295 2190L1296 2191L1295 2190M1297 2190L1298 2191L1297 2190M1279 2192L1280 2193L1279 2192M1283 2192L1284 2193L1283 2192z"/>
<path style="fill:#cd9b7c; stroke:none;" d="M1302 2192L1300 2195L1303 2195L1302 2192z"/>
<path style="fill:#e0b194; stroke:none;" d="M1277 2194L1278 2195L1277 2194M1279 2194L1280 2195L1279 2194M1281 2194L1282 2195L1281 2194M1286 2195L1285 2197L1286 2195M1290 2195L1289 2197L1290 2195M1294 2195L1293 2197L1294 2195M1267 2196L1268 2197L1267 2196M1271 2196L1272 2197L1271 2196z"/>
<path style="fill:#cd9b7c; stroke:none;" d="M1310 2196L1311 2197L1310 2196M1312 2196L1313 2197L1312 2196M1314 2196L1315 2197L1314 2196M1316 2196L1317 2197L1316 2196M1318 2196L1319 2197L1318 2196M1277 2200L1276 2200L1275 2198L1274 2198L1265 2208L1264 2208L1262 2206L1262 2209L1265 2209L1265 2210L1257 2216L1256 2216L1255 2214L1254 2214L1253 2216L1252 2216L1251 2214L1250 2214L1249 2216L1248 2216L1247 2214L1246 2214L1245 2216L1244 2216L1243 2214L1242 2214L1241 2216L1240 2216L1239 2214L1238 2214L1237 2216L1236 2216L1235 2214L1234 2214L1233 2216L1232 2216L1231 2214L1230 2214L1229 2216L1228 2216L1227 2214L1226 2214L1204 2236L1204 2237L1207 2239L1207 2236L1208 2236L1208 2239L1211 2239L1213 2237L1215 2235L1217 2233L1219 2231L1221 2229L1223 2227L1223 2224L1224 2224L1224 2227L1227 2227L1227 2224L1224 2224L1224 2223L1227 2223L1227 2220L1228 2220L1228 2223L1230 2225L1232 2227L1235 2227L1235 2224L1232 2224L1232 2223L1235 2223L1235 2220L1236 2220L1236 2223L1238 2225L1240 2227L1243 2227L1243 2224L1240 2224L1240 2223L1243 2223L1243 2220L1244 2220L1244 2223L1246 2225L1248 2227L1251 2227L1251 2224L1248 2224L1248 2223L1251 2223L1251 2220L1252 2220L1252 2223L1255 2223L1257 2221L1259 2219L1261 2217L1263 2215L1265 2213L1267 2211L1269 2209L1271 2207L1273 2205L1275 2203L1275 2200L1276 2200L1276 2203L1279 2203L1281 2201L1283 2199C1280.41 2197.11 1279.11 2197.72 1277 2200z"/>
<path style="fill:#e0b194; stroke:none;" d="M1265 2198L1266 2199L1265 2198M1267 2198L1268 2199L1267 2198M1269 2198L1270 2199L1269 2198M1279 2198L1277 2201L1279 2198z"/>
<path style="fill:#cd9b7c; stroke:none;" d="M1304 2198L1305 2199L1304 2198M1306 2198L1307 2199L1306 2198M1308 2198L1309 2199L1308 2198M1310 2198L1311 2199L1310 2198M1312 2198L1313 2199L1312 2198M1314 2198L1315 2199L1314 2198M1316 2198L1317 2199L1316 2198M1318 2198L1319 2199L1318 2198M1320 2198L1321 2199L1320 2198z"/>
<path style="fill:#e0b194; stroke:none;" d="M1274 2199L1273 2201L1274 2199M1263 2200L1264 2201L1263 2200M1267 2200L1268 2201L1267 2200z"/>
<path style="fill:#cd9b7c; stroke:none;" d="M1282 2200L1283 2201L1282 2200M1284 2200L1285 2201L1284 2200M1286 2200L1287 2201L1286 2200M1288 2200L1289 2201L1288 2200M1290 2200L1291 2201L1290 2200M1292 2200L1293 2201L1292 2200M1296 2200L1297 2201L1296 2200M1298 2200L1299 2201L1298 2200M1300 2200L1301 2201L1300 2200M1304 2200L1305 2201L1304 2200M1308 2200L1309 2201L1308 2200M1312 2200L1313 2201L1312 2200M1316 2200L1317 2201L1316 2200M1320 2200L1321 2201L1320 2200z"/>
<path style="fill:#e0b194; stroke:none;" d="M1261 2202L1262 2203L1261 2202M1263 2202L1264 2203L1263 2202M1265 2202L1266 2203L1265 2202M1271 2202L1265 2209L1271 2202z"/>
<path style="fill:#cd9b7c; stroke:none;" d="M1280 2202L1281 2203L1280 2202M1282 2202L1283 2203L1282 2202M1286 2202L1287 2203L1286 2202M1290 2202L1291 2203L1290 2202M1298 2202L1299 2203L1298 2202M1306 2202L1307 2203L1306 2202z"/>
<path style="fill:#e0b194; stroke:none;" d="M1255 2204L1256 2205L1255 2204M1259 2204L1260 2205L1259 2204z"/>
<path style="fill:#cd9b7c; stroke:none;" d="M1274 2204L1275 2205L1274 2204M1276 2204L1277 2205L1276 2204M1280 2204L1281 2205L1280 2204z"/>
<path style="fill:#e0b194; stroke:none;" d="M1257 2206L1258 2207L1257 2206M1259 2206L1260 2207L1259 2206z"/>
<path style="fill:#cd9b7c; stroke:none;" d="M1272 2206L1273 2207L1272 2206M1274 2206L1275 2207L1274 2206z"/>
<path style="fill:#e0b194; stroke:none;" d="M1223 2208L1224 2209L1223 2208M1227 2208L1228 2209L1227 2208M1231 2208L1232 2209L1231 2208M1235 2208L1236 2209L1235 2208M1239 2208L1240 2209L1239 2208M1243 2208L1244 2209L1243 2208M1247 2208L1248 2209L1247 2208M1251 2208L1252 2209L1251 2208M1255 2208L1256 2209L1255 2208z"/>
<path style="fill:#cd9b7c; stroke:none;" d="M1270 2208L1271 2209L1270 2208M1272 2208L1273 2209L1272 2208M1276 2208L1277 2209L1276 2208z"/>
<path style="fill:#e0b194; stroke:none;" d="M1221 2210L1222 2211L1221 2210M1223 2210L1224 2211L1223 2210M1225 2210L1226 2211L1225 2210M1227 2210L1228 2211L1227 2210M1229 2210L1230 2211L1229 2210M1231 2210L1232 2211L1231 2210M1233 2210L1234 2211L1233 2210M1235 2210L1236 2211L1235 2210M1237 2210L1238 2211L1237 2210M1239 2210L1240 2211L1239 2210M1241 2210L1242 2211L1241 2210M1243 2210L1244 2211L1243 2210M1245 2210L1246 2211L1245 2210M1247 2210L1248 2211L1247 2210M1249 2210L1250 2211L1249 2210M1251 2210L1252 2211L1251 2210M1253 2210L1254 2211L1253 2210M1255 2210L1256 2211L1255 2210z"/>
<path style="fill:#cd9b7c; stroke:none;" d="M1268 2210L1269 2211L1268 2210M1270 2210L1271 2211L1270 2210z"/>
<path style="fill:#e0b194; stroke:none;" d="M1262 2211L1257 2217L1256 2217L1255 2215L1254 2215L1249 2216L1249 2219L1248 2219L1248 2216L1241 2216L1241 2219L1240 2219L1240 2216L1233 2216L1233 2219L1232 2219L1232 2216L1225 2216L1225 2219L1222 2222L1221 2223L1218 2226L1217 2227L1214 2230L1213 2231L1210 2234L1209 2235L1205 2237L1207 2235L1208 2235L1209 2237L1210 2237L1227 2219L1228 2219L1231 2223L1232 2223L1235 2219L1236 2219L1239 2223L1240 2223L1243 2219L1244 2219L1247 2223L1248 2223L1251 2219L1252 2219L1253 2221L1254 2221L1262 2211M1219 2212L1220 2213L1219 2212M1223 2212L1224 2213L1223 2212z"/>
<path style="fill:#cd9b7c; stroke:none;" d="M1266 2212L1267 2213L1266 2212M1268 2212L1269 2213L1268 2212M1272 2212L1273 2213L1272 2212z"/>
<path style="fill:#e0b194; stroke:none;" d="M1217 2214L1218 2215L1217 2214M1219 2214L1220 2215L1219 2214M1221 2214L1222 2215L1221 2214z"/>
<path style="fill:#cd9b7c; stroke:none;" d="M1264 2214L1265 2215L1264 2214M1266 2214L1267 2215L1266 2214z"/>
<path style="fill:#e0b194; stroke:none;" d="M1215 2216L1216 2217L1215 2216M1219 2216L1220 2217L1219 2216z"/>
<path style="fill:#cd9b7c; stroke:none;" d="M1254 2216L1249 2220L1248 2220C1245.35 2217.3 1243.6 2217.21 1241 2220L1240 2220C1237.35 2217.3 1235.6 2217.21 1233 2220L1232 2220C1228.62 2216.57 1225.97 2218.26 1222 2220L1222 2221L1227 2218L1228 2218C1230.65 2220.7 1232.4 2220.79 1235 2218L1236 2218C1238.65 2220.7 1240.4 2220.79 1243 2218L1244 2218C1246.65 2220.7 1248.4 2220.79 1251 2218L1252 2218L1254 2220L1254 2216M1262 2216L1263 2217L1262 2216M1264 2216L1265 2217L1264 2216M1268 2216L1269 2217L1268 2216z"/>
<path style="fill:#e0b194; stroke:none;" d="M1213 2218L1214 2219L1213 2218M1215 2218L1216 2219L1215 2218M1217 2218L1218 2219L1217 2218M1229 2218L1231 2220L1229 2218M1237 2218L1239 2220L1237 2218M1245 2218L1247 2220L1245 2218M1253 2218L1254 2219L1253 2218z"/>
<path style="fill:#cd9b7c; stroke:none;" d="M1260 2218L1261 2219L1260 2218M1262 2218L1263 2219L1262 2218z"/>
<path style="fill:#e0b194; stroke:none;" d="M1211 2220L1212 2221L1211 2220M1215 2220L1216 2221L1215 2220z"/>
<path style="fill:#cd9b7c; stroke:none;" d="M1258 2220L1259 2221L1258 2220M1260 2220L1261 2221L1260 2220M1264 2220L1265 2221L1264 2220z"/>
<path style="fill:#e0b194; stroke:none;" d="M1209 2222L1210 2223L1209 2222M1211 2222L1212 2223L1211 2222M1213 2222L1214 2223L1213 2222z"/>
<path style="fill:#cd9b7c; stroke:none;" d="M1222 2222L1219 2223L1218 2224L1214 2228L1214 2229L1222 2222M1256 2222L1257 2223L1256 2222M1258 2222L1259 2223L1258 2222z"/>
<path style="fill:#e0b194; stroke:none;" d="M1207 2224L1208 2225L1207 2224M1211 2224L1212 2225L1211 2224M1219 2224L1220 2225L1219 2224z"/>
<path style="fill:#cd9b7c; stroke:none;" d="M1228 2224L1229 2225L1228 2224M1236 2224L1237 2225L1236 2224M1244 2224L1245 2225L1244 2224M1252 2224L1253 2225L1252 2224M1254 2224L1255 2225L1254 2224M1256 2224L1257 2225L1256 2224M1260 2224L1261 2225L1260 2224z"/>
<path style="fill:#e0b194; stroke:none;" d="M1205 2226L1206 2227L1205 2226M1207 2226L1208 2227L1207 2226M1209 2226L1210 2227L1209 2226z"/>
<path style="fill:#cd9b7c; stroke:none;" d="M1228 2226L1229 2227L1228 2226M1230 2226L1231 2227L1230 2226M1236 2226L1237 2227L1236 2226M1238 2226L1239 2227L1238 2226M1244 2226L1245 2227L1244 2226M1246 2226L1247 2227L1246 2226M1252 2226L1253 2227L1252 2226M1254 2226L1255 2227L1254 2226z"/>
<path style="fill:#e0b194; stroke:none;" d="M1203 2228L1204 2229L1203 2228M1207 2228L1208 2229L1207 2228z"/>
<path style="fill:#cd9b7c; stroke:none;" d="M1222 2228L1223 2229L1222 2228M1224 2228L1225 2229L1224 2228M1228 2228L1229 2229L1228 2228M1232 2228L1233 2229L1232 2228M1236 2228L1237 2229L1236 2228M1240 2228L1241 2229L1240 2228M1244 2228L1245 2229L1244 2228M1248 2228L1249 2229L1248 2228M1252 2228L1253 2229L1252 2228M1256 2228L1257 2229L1256 2228z"/>
<path style="fill:#e0b194; stroke:none;" d="M1201 2230L1202 2231L1201 2230M1203 2230L1204 2231L1203 2230M1205 2230L1206 2231L1205 2230z"/>
<path style="fill:#cd9b7c; stroke:none;" d="M1214 2230L1210 2232L1210 2233L1214 2230M1220 2230L1221 2231L1220 2230M1222 2230L1223 2231L1222 2230M1230 2230L1231 2231L1230 2230M1238 2230L1239 2231L1238 2230M1246 2230L1247 2231L1246 2230z"/>
<path style="fill:#e0b194; stroke:none;" d="M1199 2232L1200 2233L1199 2232M1203 2232L1204 2233L1203 2232z"/>
<path style="fill:#cd9b7c; stroke:none;" d="M1218 2232L1219 2233L1218 2232M1220 2232L1221 2233L1220 2232M1224 2232L1225 2233L1224 2232M1232 2232L1233 2233L1232 2232M1240 2232L1241 2233L1240 2232M1248 2232L1249 2233L1248 2232z"/>
<path style="fill:#e0b194; stroke:none;" d="M1201 2234L1202 2235L1201 2234z"/>
<path style="fill:#cd9b7c; stroke:none;" d="M1210 2234L1209 2236L1210 2234M1216 2234L1217 2235L1216 2234M1218 2234L1219 2235L1218 2234M1216 2236L1217 2237L1216 2236M1212 2238L1213 2239L1212 2238M1214 2238L1215 2239L1214 2238M1208 2240L1209 2241L1208 2240M1212 2240L1213 2241L1212 2240z"/>
<path style="fill:#745c4e; stroke:none;" d="M2109 2258.42C2077.68 2262.54 2044.59 2260 2013 2260C2005.31 2260 1984.23 2256.35 1978.74 2262.51C1973 2268.97 1976 2285.99 1976 2294L1976 2381L1976 2690L1976 2769C1976 2776.35 1972.98 2792.61 1977.86 2798.57C1983 2804.84 2006.36 2801 2014 2801L2090 2801C2101.78 2801 2115.41 2802.91 2127 2800.77C2139.19 2798.52 2133.7 2780.57 2134.71 2772C2138.31 2741.52 2135 2708.71 2135 2678C2135 2569.74 2135.67 2461.53 2135.67 2353.33C2135.67 2333.07 2133.25 2312.15 2135.17 2292C2136 2283.32 2138.89 2268.49 2132.28 2261.39C2127.26 2256.01 2115.62 2257.56 2109 2258.42z"/>
<path style="fill:#a47f68; stroke:none;" d="M2046.83 2261.5C2030.53 2263.39 2013.4 2262 1997 2262C1991.52 2262 1982.49 2260.25 1979.43 2266.11C1974.97 2274.65 1978 2290.55 1978 2300L1978 2381L1978 2675L1978 2766C1978 2772.87 1974.68 2792.19 1979.74 2797.26C1982.19 2799.71 1986.87 2799 1990 2799L2016 2799L2090 2799C2101.56 2799 2114.57 2800.68 2125.98 2798.85C2136.25 2797.2 2132 2770.81 2132 2763L2132 2645L2132 2362L2132 2290C2132 2282.89 2134.58 2269.03 2129.44 2263.32C2125.34 2258.77 2113.58 2261 2108 2261C2087.89 2261 2066.81 2259.19 2046.83 2261.5z"/>
<path style="fill:#cd9b7c; stroke:none;" d="M2086.71 2262.54C2061.8 2265.6 2035.1 2262.97 2010 2263C2004.03 2263.01 1985.97 2261.47 1981.86 2265.74C1976.99 2270.79 1979 2287.41 1979 2294L1979 2371L1979 2680L1979 2766C1979 2772.7 1975.78 2791.3 1980.74 2796.26C1983.19 2798.71 1987.87 2798 1991 2798L2017 2798L2089 2798C2100.55 2798 2113.59 2799.7 2124.98 2797.85C2133.68 2796.44 2130 2773.75 2130 2767L2130 2667L2130 2359L2130 2288C2130 2282.15 2132.55 2268.05 2127.49 2263.94C2124.52 2261.53 2119.56 2262.01 2116 2262C2106.31 2261.98 2096.35 2261.36 2086.71 2262.54z"/>
<path style="fill:#e0b194; stroke:none;" d="M2054.71 2264.54C2037.57 2266.65 2019.28 2265.32 2002 2266C1996.87 2266.2 1985.3 2265.47 1982.18 2270.3C1977.9 2276.92 1981 2293.26 1981 2301L1981 2380C1981 2479 1980 2578.06 1980 2677L1980 2765C1980 2771.79 1976.78 2790.32 1981.74 2795.4C1984.12 2797.83 1988.93 2797 1992 2797L2017 2797L2090 2797C2101.05 2797 2114.11 2798.93 2124.94 2796.77C2132.61 2795.24 2129 2768.52 2129 2762L2129 2649C2129 2553.64 2128 2458.35 2128 2363L2128 2291C2128 2285.06 2130.64 2270.36 2126.14 2265.86C2122.48 2262.2 2112.72 2264 2108 2264C2090.49 2264 2072.1 2262.4 2054.71 2264.54z"/>
</svg>
